<svg width="595" height="455" viewBox="0 0 595 455" fill="none" xmlns="http://www.w3.org/2000/svg">
<path d="M321.611 394.095V403.916H357.281C357.323 393.719 365.628 385.435 375.834 385.435C386.039 385.435 394.345 393.719 394.387 403.916H430.056V394.095H412.843C411.962 390.809 410.668 387.699 408.998 384.822L421.172 372.649L407.178 358.654L395.005 370.828C392.127 369.158 389.017 367.864 385.731 366.985V349.771H365.937V366.985C362.652 367.865 359.541 369.16 356.664 370.828L344.49 358.654L330.495 372.649L342.668 384.822C340.998 387.699 339.704 390.809 338.825 394.095H321.611Z" fill="#BEDCE0"/>
<path d="M18.9072 403.916C18.9072 403.916 23.227 137.876 75.2554 135.869C127.284 133.862 94.493 354.424 125.097 354.424C155.7 354.424 157.325 226.224 190.575 226.224C223.824 226.224 208.959 364.067 234.913 364.067C260.866 364.067 249.778 204.276 278.509 204.276C311.714 204.276 299.274 341.22 319.556 341.22C351.195 341.22 330.103 126.236 388.513 126.236C450.982 126.236 427.183 376.768 455.194 376.768C483.205 376.768 473.697 188.165 522.373 188.165C562.937 188.165 567.804 403.917 567.804 403.917" stroke="#BEDCE0" stroke-width="0.8315" stroke-miterlimit="10"/>
<path d="M45.2784 195.414C45.2784 198.411 42.8481 200.841 39.8509 200.841C36.8538 200.841 34.4235 198.411 34.4235 195.414C34.4235 192.415 36.8538 189.986 39.8509 189.986C42.8481 189.986 45.2784 192.415 45.2784 195.414Z" fill="#4A75C9"/>
<path d="M220.81 294.644C220.81 297.641 218.379 300.071 215.382 300.071C212.385 300.071 209.955 297.641 209.955 294.644C209.955 291.647 212.385 289.217 215.382 289.217C218.379 289.217 220.81 291.647 220.81 294.644Z" fill="#4A75C9"/>
<path d="M327.039 341.426C327.039 344.423 324.609 346.853 321.611 346.853C318.614 346.853 316.184 344.423 316.184 341.426C316.184 338.428 318.614 335.999 321.611 335.999C324.609 335.997 327.039 338.428 327.039 341.426Z" fill="#4A75C9"/>
<path d="M373.572 138.047C373.572 141.044 371.142 143.475 368.144 143.475C365.147 143.475 362.717 141.044 362.717 138.047C362.717 135.05 365.147 132.62 368.144 132.62C371.142 132.62 373.572 135.05 373.572 138.047Z" fill="#4A75C9"/>
<path d="M491.339 252.332C491.339 255.331 488.909 257.76 485.912 257.76C482.915 257.76 480.485 255.33 480.485 252.332C480.485 249.335 482.915 246.905 485.912 246.905C488.909 246.904 491.339 249.334 491.339 252.332Z" fill="#4A75C9"/>
<path d="M555.494 268.878C558.492 268.878 560.922 266.448 560.922 263.451C560.922 260.453 558.492 258.023 555.494 258.023C552.497 258.023 550.067 260.453 550.067 263.451C550.067 266.448 552.497 268.878 555.494 268.878Z" fill="#4A75C9"/>
<path d="M536.185 183.63H466.1C462.688 183.63 459.922 180.864 459.922 177.452V129.952C459.922 126.541 462.688 123.774 466.1 123.774H536.185C539.596 123.774 542.362 126.54 542.362 129.952V177.452C542.362 180.865 539.597 183.63 536.185 183.63Z" fill="#1B2536"/>
<path d="M512.757 136.483H529.345C530.015 136.483 530.558 135.94 530.558 135.271C530.558 134.601 530.015 134.058 529.345 134.058H512.757C512.087 134.058 511.544 134.601 511.544 135.271C511.544 135.94 512.087 136.483 512.757 136.483Z" fill="#D68D8D"/>
<path d="M499.807 141.092H529.345C530.015 141.092 530.558 140.549 530.558 139.879C530.558 139.209 530.015 138.666 529.345 138.666H499.807C499.137 138.666 498.594 139.209 498.594 139.879C498.594 140.549 499.137 141.092 499.807 141.092Z" fill="white"/>
<path d="M480.775 141.092H494.939C495.608 141.092 496.151 140.549 496.151 139.879C496.151 139.209 495.608 138.666 494.939 138.666H480.775C480.106 138.666 479.563 139.209 479.563 139.879C479.563 140.549 480.106 141.092 480.775 141.092Z" fill="#BEDCE0"/>
<path d="M478.738 145.699H529.345C530.015 145.699 530.558 145.156 530.558 144.486C530.558 143.816 530.015 143.273 529.345 143.273H478.738C478.068 143.273 477.525 143.816 477.525 144.486C477.525 145.156 478.068 145.699 478.738 145.699Z" fill="#EBBC3B"/>
<path d="M525.622 150.307H529.346C530.016 150.307 530.559 149.764 530.559 149.094C530.559 148.425 530.016 147.882 529.346 147.882H525.622C524.952 147.882 524.409 148.425 524.409 149.094C524.409 149.764 524.952 150.307 525.622 150.307Z" fill="#4A75C9"/>
<path d="M495.331 150.307H520.72C521.39 150.307 521.933 149.764 521.933 149.094C521.933 148.425 521.39 147.882 520.72 147.882H495.331C494.661 147.882 494.118 148.425 494.118 149.094C494.118 149.764 494.661 150.307 495.331 150.307Z" fill="#BEDCE0"/>
<path d="M512.757 154.914H529.345C530.015 154.914 530.558 154.371 530.558 153.701C530.558 153.032 530.015 152.489 529.345 152.489H512.757C512.087 152.489 511.544 153.032 511.544 153.701C511.544 154.371 512.087 154.914 512.757 154.914Z" fill="white"/>
<path d="M488.462 159.523H529.345C530.015 159.523 530.558 158.98 530.558 158.31C530.558 157.64 530.015 157.097 529.345 157.097H488.462C487.792 157.097 487.249 157.64 487.249 158.31C487.25 158.98 487.792 159.523 488.462 159.523Z" fill="#EBBC3B"/>
<path d="M478.131 164.131H529.345C530.015 164.131 530.558 163.588 530.558 162.918C530.558 162.248 530.015 161.705 529.345 161.705H478.131C477.461 161.705 476.918 162.248 476.918 162.918C476.918 163.588 477.461 164.131 478.131 164.131Z" fill="white"/>
<path d="M502.233 168.738H529.346C530.016 168.738 530.559 168.195 530.559 167.525C530.559 166.856 530.016 166.312 529.346 166.312H502.233C501.563 166.312 501.02 166.856 501.02 167.525C501.02 168.195 501.563 168.738 502.233 168.738Z" fill="#4A75C9"/>
<path d="M478.131 168.738H495.544C496.214 168.738 496.757 168.195 496.757 167.525C496.757 166.856 496.214 166.312 495.544 166.312H478.131C477.461 166.312 476.918 166.856 476.918 167.525C476.918 168.195 477.461 168.738 478.131 168.738Z" fill="#BEDCE0"/>
<path d="M512.757 173.346H529.345C530.015 173.346 530.558 172.803 530.558 172.134C530.558 171.464 530.015 170.921 529.345 170.921H512.757C512.087 170.921 511.544 171.464 511.544 172.134C511.544 172.803 512.087 173.346 512.757 173.346Z" fill="#D68D8D"/>
<path d="M162.034 130.042C166.093 128.675 167.551 124.753 166.457 121.379C165.363 118.005 159.846 117.23 149.587 121.105C139.328 124.98 131.941 124.571 131.303 127.9C130.665 131.228 133.4 132.87 138.416 132.231L142.861 142.626L162.034 130.042Z" fill="#365896"/>
<path d="M169.152 236.031L199.24 389.333H178.722L143.704 261.268L101.11 387.113H81.8301L115.252 236.031H169.152Z" fill="#1B2536"/>
<path d="M149.131 129.222L162.308 127.079C162.308 127.079 163.22 131.502 163.175 135.424C163.175 135.424 165.592 138.005 165.455 142.537C165.318 147.051 162.856 151.108 158.341 151.975L158.433 160.274H142.337L144.663 139.756C144.663 139.756 150.042 138.432 149.131 129.222Z" fill="#D9956A"/>
<path d="M147.558 143.445C146.551 145.781 143.559 146.737 140.877 145.579C138.194 144.422 136.837 141.591 137.843 139.256C138.85 136.92 141.842 135.964 144.523 137.122C147.207 138.278 148.565 141.11 147.558 143.445Z" fill="#D9956A"/>
<path d="M139.555 139.846C139.555 139.846 143.751 137.384 146.166 142.627" stroke="#422424" stroke-width="0.3868" stroke-miterlimit="10"/>
<path d="M141.653 142.354L142.336 139.301" stroke="#422424" stroke-width="0.3868" stroke-miterlimit="10"/>
<path d="M157.338 152.02C157.338 152.02 153.097 152.658 149.359 149.421" stroke="#422424" stroke-width="0.3868" stroke-miterlimit="10"/>
<path d="M156.616 133.599C156.616 133.599 156.61 136.307 158.149 138.11C158.404 138.407 158.325 138.86 157.977 139.041L156.616 139.754" stroke="#422424" stroke-width="0.3868" stroke-miterlimit="10"/>
<path d="M154.191 141.35H160.894C160.894 141.35 158.751 147.14 157.155 147.185C155.559 147.232 154.191 141.35 154.191 141.35Z" fill="#422424"/>
<path d="M156.849 143.415C156.144 143.415 155.473 143.512 154.863 143.685C155.413 145.321 156.247 147.213 157.155 147.187C157.995 147.163 158.984 145.548 159.735 144.022C158.916 143.641 157.924 143.415 156.849 143.415Z" fill="#943232"/>
<path d="M152.51 133.231C151.888 133.315 151.561 134.46 151.779 135.789C151.846 136.196 151.96 136.567 152.099 136.893L153.011 136.278C153.011 136.278 152.782 136.984 152.549 137.648C152.786 137.924 153.049 138.078 153.302 138.044C153.924 137.96 154.251 136.815 154.033 135.486C153.815 134.156 153.132 133.147 152.51 133.231Z" fill="#1B2536"/>
<path d="M159.609 132.274C158.986 132.357 158.659 133.502 158.878 134.832C158.945 135.239 159.059 135.61 159.198 135.936L160.11 135.321C160.11 135.321 159.88 136.027 159.647 136.691C159.885 136.967 160.147 137.121 160.401 137.087C161.023 137.003 161.35 135.858 161.132 134.529C160.913 133.199 160.231 132.19 159.609 132.274Z" fill="#1B2536"/>
<path d="M149.791 131.729C149.791 131.729 152.122 130.977 153.897 131.729" stroke="#365896" stroke-width="0.75" stroke-miterlimit="10" stroke-linecap="round" stroke-linejoin="round"/>
<path d="M157.828 131.08C157.828 131.08 159.232 130.076 161.505 130.39" stroke="#365896" stroke-width="0.75" stroke-miterlimit="10" stroke-linecap="round" stroke-linejoin="round"/>
<path d="M143.015 156.944H158.546C159.683 156.944 160.671 157.725 160.935 158.83L161.507 161.23L182.28 168.564L200.245 198.528L208.088 189.219L220.673 194.59L213.041 214.133C209.696 222.701 199.238 225.914 191.658 220.703L174.844 209.144L171.612 229.259C171.612 229.259 183.103 239.075 170.244 239.075H115.717C114.243 239.075 113.139 237.722 113.435 236.277L127.931 165.535L140.06 160.866L140.653 158.74C140.947 157.679 141.913 156.944 143.015 156.944Z" fill="#D65353"/>
<path d="M200.244 198.527L192.333 208.673" stroke="#1B2536" stroke-width="0.4299" stroke-miterlimit="10"/>
<path d="M174.842 209.143L177.263 193.075" stroke="#1B2536" stroke-width="0.4299" stroke-miterlimit="10"/>
<path d="M206.852 201.092H155.831L164.359 160.273H215.381L206.852 201.092Z" fill="#EDD1C2"/>
<path d="M206.987 168.564H169.288C168.454 168.564 167.92 167.886 168.095 167.049C168.27 166.213 169.088 165.534 169.92 165.534H207.619C208.453 165.534 208.986 166.212 208.812 167.049C208.638 167.886 207.821 168.564 206.987 168.564Z" stroke="white" stroke-width="0.4299" stroke-miterlimit="10"/>
<path d="M205.549 175.45H167.85C167.016 175.45 166.483 174.772 166.657 173.935C166.832 173.099 167.65 172.42 168.482 172.42H206.181C207.015 172.42 207.549 173.097 207.374 173.935C207.2 174.771 206.383 175.45 205.549 175.45Z" stroke="white" stroke-width="0.4299" stroke-miterlimit="10"/>
<path d="M194.312 182.334H166.411C165.577 182.334 165.044 181.656 165.218 180.819C165.394 179.983 166.211 179.304 167.043 179.304H194.944C195.778 179.304 196.312 179.982 196.137 180.819C195.962 181.656 195.146 182.334 194.312 182.334Z" stroke="white" stroke-width="0.4299" stroke-miterlimit="10"/>
<path d="M202.672 189.219H164.973C164.139 189.219 163.605 188.542 163.78 187.704C163.956 186.868 164.773 186.189 165.606 186.189H203.305C204.139 186.189 204.673 186.867 204.498 187.704C204.323 188.542 203.506 189.219 202.672 189.219Z" stroke="white" stroke-width="0.4299" stroke-miterlimit="10"/>
<path d="M186.511 196.104H163.535C162.701 196.104 162.167 195.426 162.342 194.589C162.516 193.753 163.334 193.074 164.167 193.074H187.143C187.977 193.074 188.51 193.752 188.336 194.589C188.161 195.426 187.343 196.104 186.511 196.104Z" stroke="white" stroke-width="0.4299" stroke-miterlimit="10"/>
<path d="M117.469 216.578C117.469 216.578 140.117 206.269 154.465 202.449C148.839 212.772 132.247 225.594 121.795 233.004C118.571 235.291 114.217 232.445 115.011 228.573L117.469 216.578Z" fill="#1B2536"/>
<path d="M127.929 165.535C122.001 167.34 116.986 171.079 109.234 179.925C101.483 188.77 84.8805 205.146 93.3673 218.772C103.307 234.731 140.422 213.392 154.466 202.449L147.171 188.678L123.552 195.61L132.49 182.335L127.929 165.535Z" fill="#D65353"/>
<path d="M109.781 193.075C109.781 193.075 113.68 192.271 120.998 194.59" stroke="#1B2536" stroke-width="0.4299" stroke-miterlimit="10"/>
<path d="M147.17 188.679L153.006 186.582L158.418 175.169C158.975 173.995 160.031 173.135 161.293 172.826L168.778 170.997C170.138 170.665 171.483 171.597 171.649 172.988L172.259 178.087C172.361 178.934 171.874 179.742 171.08 180.05L165.188 182.334C165.188 182.334 170.289 183.161 172.432 183.435C172.738 183.474 172.735 184.614 172.432 184.666C170.335 185.031 165.188 184.803 165.188 184.803C165.188 184.803 161.763 191.438 157.044 191.574L151.106 196.104L147.17 188.679Z" fill="#D9956A"/>
<path d="M161.104 176.601L171.648 173.739" stroke="#422424" stroke-width="0.3868" stroke-miterlimit="10"/>
<path d="M161.886 179.305L172.074 176.54" stroke="#422424" stroke-width="0.3868" stroke-miterlimit="10"/>
<path d="M217.915 193.413V185.145L219.276 178.277C219.568 176.803 218.95 175.296 217.704 174.454L211.556 170.297C210.821 169.801 209.817 170.183 209.597 171.042L207.196 180.456C207.062 180.985 207.287 181.54 207.753 181.824L210.525 183.517L209.232 189.708L217.915 193.413Z" fill="#D9956A"/>
<path d="M210.525 183.517L213.557 185.351" stroke="#422424" stroke-width="0.3868" stroke-miterlimit="10"/>
<path d="M207.724 178.387L214.469 182.334" stroke="#422424" stroke-width="0.3868" stroke-miterlimit="10"/>
<path d="M208.39 175.45L215.136 179.397" stroke="#422424" stroke-width="0.3868" stroke-miterlimit="10"/>
<path d="M209.25 172.646L215.995 176.594" stroke="#422424" stroke-width="0.3868" stroke-miterlimit="10"/>
<path d="M165.185 213.086L146.018 225.169" stroke="#1B2536" stroke-width="0.4299" stroke-miterlimit="10"/>
<path d="M97.7436 384.925L99.4351 392.037L118.536 400.427L119.448 404.594H78.0467L85.1588 384.925H97.7436Z" fill="#1B2536"/>
<path d="M138.416 132.23C141.002 132.124 145.219 130.328 145.219 130.328L140.08 136.122L138.416 132.23Z" fill="#1B2536"/>
<path d="M105.403 201.109L147.17 188.679L154.465 202.449" stroke="#1B2536" stroke-width="0.4299" stroke-miterlimit="10"/>
<path d="M123.551 195.609L134.08 180.36" stroke="#1B2536" stroke-width="0.4299" stroke-miterlimit="10"/>
<path d="M574.737 402.052V378.463H554.223C553.174 374.548 551.632 370.841 549.642 367.412L564.15 352.903L547.472 336.225L532.964 350.733C529.534 348.743 525.828 347.201 521.913 346.152V325.638H498.324V346.152C494.408 347.201 490.702 348.743 487.272 350.733L472.764 336.225L456.086 352.903L470.594 367.412C468.604 370.841 467.062 374.548 466.013 378.463H445.499V402.052H466.013C467.062 405.968 468.604 409.675 470.594 413.104L456.086 427.611L472.764 444.29L487.272 429.781C490.702 431.772 494.408 433.314 498.324 434.362V454.877H521.913V434.362C525.829 433.314 529.535 431.772 532.964 429.781L547.472 444.29L564.15 427.611L549.642 413.104C551.632 409.675 553.174 405.968 554.223 402.052H574.737ZM532.233 390.257C532.233 402.451 522.311 412.372 510.118 412.372C497.925 412.372 488.003 402.451 488.003 390.257C488.003 378.064 497.925 368.143 510.118 368.143C522.31 368.143 532.233 378.064 532.233 390.257Z" fill="#D4780E"/>
<path d="M448.113 148.052L445.378 158.815C445.378 158.815 439.283 152.037 439.708 146.991L448.113 148.052Z" fill="#1B2536"/>
<path d="M390.858 377.766L389.358 387.433L373.535 394.794C372.137 395.445 371.052 396.618 370.514 398.063L368.145 404.419H405.403L403.368 388.294L404.477 377.766H390.858Z" fill="#D68D8D"/>
<path d="M394.811 387.615C394.811 385.5 393.096 383.786 390.981 383.786H389.923L389.357 387.434L373.534 394.795C372.136 395.446 371.051 396.619 370.513 398.064L368.143 404.42H405.402L403.367 388.295L403.438 387.617H394.811V387.615Z" fill="#1B2536"/>
<path d="M368.145 404.419H405.403L404.94 400.74H369.516L368.145 404.419Z" fill="#4A6CAB"/>
<path d="M475.33 377.767L476.012 387.442L460.113 394.638C458.709 395.274 457.612 396.436 457.058 397.875L454.624 404.595H491.881L490.015 388.449L488.95 377.909L475.33 377.767Z" fill="#D68D8D"/>
<path d="M490.013 388.449L489.915 387.478H480.44L480.363 386.936C480.094 385.049 478.477 383.648 476.572 383.648H475.745L476.012 387.442L460.113 394.638C458.709 395.274 457.612 396.436 457.058 397.875L454.624 404.594H491.881L490.013 388.449Z" fill="#1B2536"/>
<path d="M454.624 404.594L491.88 404.595L491.455 400.911L456.032 400.542L454.624 404.594Z" fill="#4A6CAB"/>
<path d="M398.241 285.2H373.432L376.62 273.14H395.052L398.241 285.2ZM377.222 282.282H394.451L392.805 276.058H378.868L377.222 282.282Z" fill="#1B2536"/>
<path d="M408.146 318.629H362.744C360.09 318.629 357.938 316.477 357.938 313.823V288.762H412.952V313.823C412.952 316.477 410.8 318.629 408.146 318.629Z" fill="#6E9296"/>
<path d="M412.071 295.101H358.82C357.334 295.101 356.129 293.896 356.129 292.408V286.733C356.129 283.492 358.757 280.863 362 280.863H408.893C412.135 280.863 414.764 283.492 414.764 286.733V292.408C414.763 293.896 413.558 295.101 412.071 295.101Z" fill="#496163"/>
<path d="M369.738 288.762H365.102V295.101H369.738V288.762Z" fill="white"/>
<path d="M405.789 288.762H401.154V295.101H405.789V288.762Z" fill="white"/>
<path d="M369.738 288.762H365.102V301.403H369.738V288.762Z" stroke="#1B2536" stroke-width="0.4299" stroke-miterlimit="10"/>
<path d="M405.789 288.762H401.154V301.403H405.789V288.762Z" stroke="#1B2536" stroke-width="0.4299" stroke-miterlimit="10"/>
<path d="M420.983 237.285V249.505L398.106 304.476C396.464 308.42 395.374 312.571 394.868 316.813L387.242 380.638H408.034L417.566 328.128C418.383 323.632 419.685 319.237 421.451 315.022L440.674 266.01H444.978L471.685 380.639H491.566L473.145 248.593L472.051 236.374L420.983 237.285Z" fill="#4A6CAB"/>
<path d="M420.983 242.757H472.622" stroke="#1B2536" stroke-width="0.4299" stroke-miterlimit="10"/>
<path d="M442.826 266.011L441.182 238.653" stroke="#1B2536" stroke-width="0.4299" stroke-miterlimit="10"/>
<path d="M436.668 239.199L437.583 252.567C437.739 254.847 439.635 256.617 441.92 256.617H442.262" stroke="#1B2536" stroke-width="0.4299" stroke-miterlimit="10"/>
<path d="M461.928 239.199C461.928 239.199 460.337 256.07 474.264 256.618" stroke="#1B2536" stroke-width="0.4299" stroke-miterlimit="10"/>
<path d="M427.458 239.747C427.458 239.747 427.829 256.401 417.841 257.056" stroke="#1B2536" stroke-width="0.4299" stroke-miterlimit="10"/>
<path d="M430.194 266.011L454.816 266.375" stroke="#1B2536" stroke-width="0.4299" stroke-miterlimit="10"/>
<path d="M435.756 266.375L413.323 318.628L404.022 376.991" stroke="#1B2536" stroke-width="0.4299" stroke-miterlimit="10"/>
<path d="M470.347 255.933L485.912 376.991" stroke="#1B2536" stroke-width="0.4299" stroke-miterlimit="10"/>
<path d="M420.983 241.007L473.084 247.91L472.051 236.374L420.983 237.285V241.007Z" fill="#1B2536"/>
<path d="M405.48 210.201L402.653 224.245L383.32 263.002L379.778 275.286C379.406 276.577 380.374 277.866 381.719 277.866H389.853C391.138 277.866 392.141 276.754 392.007 275.475L391.162 267.379L422.35 230.264L422.532 210.201H405.48Z" fill="#D68D8D"/>
<path d="M385.145 266.011C385.145 266.011 386.913 269.933 384.826 275.677H386.867C388.041 275.677 388.988 276.634 388.976 277.807V277.865" stroke="#422424" stroke-width="0.3868" stroke-miterlimit="10"/>
<path d="M385.83 271.938H391.513" stroke="#422424" stroke-width="0.3868" stroke-miterlimit="10"/>
<path d="M389.203 271.938L390.49 277.763" stroke="#422424" stroke-width="0.3868" stroke-miterlimit="10"/>
<path d="M386.9 271.938L387.774 275.889" stroke="#422424" stroke-width="0.3868" stroke-miterlimit="10"/>
<path d="M404.076 217.179C404.076 217.179 408.886 220.599 422.413 223.516L422.534 210.2H405.481L404.076 217.179Z" fill="#1B2536"/>
<path d="M439.678 171.285C439.678 171.285 457.871 171.444 466.762 176.186C475.652 180.928 490.289 209.654 490.289 209.654L472.781 210.748L476.394 236.283C476.654 238.112 475.234 239.746 473.386 239.746H418.248C412.685 239.746 419.981 235.187 419.981 235.187L418.339 215.033C418.339 215.033 406.12 217.404 399.006 214.303L410.203 185.412C412.427 179.673 417.455 175.488 423.503 174.344L439.678 171.285Z" fill="#6E9296"/>
<path d="M445.275 166.93L450.23 171.997L441.661 182.159L437.147 176.893L434.275 181.75L428.017 173.132L432.018 169.165L445.275 166.93Z" fill="#496163"/>
<path d="M463.184 211.298L459.922 191.324" stroke="#1B2536" stroke-width="0.4299" stroke-miterlimit="10"/>
<path d="M418.339 215.034L416.287 191.324" stroke="#1B2536" stroke-width="0.4299" stroke-miterlimit="10"/>
<path d="M437.861 179.088L442.826 237.285" stroke="#1B2536" stroke-width="0.4299" stroke-miterlimit="10"/>
<path d="M460.136 233.181H429.491L425.517 196.936H456.161L460.136 233.181Z" fill="white"/>
<path d="M442.814 196.112C442.599 195.053 441.627 194.221 440.542 194.221C439.457 194.221 438.667 195.053 438.684 196.112H435.585L435.862 198.643H446.19L445.913 196.112H442.814Z" fill="#D4780E"/>
<path d="M471.686 380.639H491.566L490.765 374.893H470.347L471.686 380.639Z" fill="#6B89BF"/>
<path d="M409.077 374.893H387.929L387.242 380.639H408.034L409.077 374.893Z" fill="#6B89BF"/>
<path d="M486.598 209.884L463.184 211.297L463.776 215.96L441.379 212.036C441.379 212.036 438.807 206.041 431.857 205.193C431.467 205.146 431.287 205.668 431.617 205.881C432.71 206.585 434.114 207.739 434.616 209.244L428.643 209.471L425.799 208.829C425.312 208.718 424.858 209.115 424.902 209.614L425.517 216.472C425.592 217.32 426.224 218.009 427.062 218.164C428.08 218.353 429.747 218.548 432.381 218.592C436.895 220.735 440.315 220.097 440.315 220.097C440.315 220.097 453.492 229.854 470.955 233.867C488.419 237.878 489.651 224.655 486.598 209.884Z" fill="#D68D8D"/>
<path d="M425.023 211.123C425.023 211.123 428.312 212.289 431.591 212.096" stroke="#422424" stroke-width="0.3868" stroke-miterlimit="10"/>
<path d="M425.211 213.294C425.211 213.294 428.5 214.46 431.779 214.267" stroke="#422424" stroke-width="0.3868" stroke-miterlimit="10"/>
<path d="M425.399 215.467C425.399 215.467 428.688 216.632 431.966 216.44" stroke="#422424" stroke-width="0.3868" stroke-miterlimit="10"/>
<path d="M463.777 215.96L475.197 217.634" stroke="#422424" stroke-width="0.3868" stroke-miterlimit="10"/>
<path d="M426.546 145.181C426.546 145.181 425.452 152.384 424.449 157.492C423.445 162.599 425.543 167.159 432.018 166.885V170.988L437.124 176.186L445.787 169.073L445.24 154.938C445.24 154.938 440.68 153.57 441.228 146.913L426.546 145.181Z" fill="#D68D8D"/>
<path d="M432.883 166.93C432.883 166.93 437.762 166.975 440.27 162.918" stroke="#422424" stroke-width="0.3868" stroke-miterlimit="10"/>
<path d="M447.872 158.528C446.396 160.368 444.035 160.924 442.6 159.773C441.165 158.621 441.199 156.195 442.677 154.357C444.155 152.517 446.515 151.96 447.949 153.112C449.384 154.264 449.35 156.688 447.872 158.528Z" fill="#D68D8D"/>
<path d="M442.826 157.175C443.098 155.256 446.288 153.333 447.547 155.248" stroke="#422424" stroke-width="0.3868" stroke-miterlimit="10"/>
<path d="M445.86 157.39L444.104 155.221" stroke="#422424" stroke-width="0.3868" stroke-miterlimit="10"/>
<path d="M429.363 152.87L430.041 153.199C430.106 152.969 430.158 152.724 430.185 152.464C430.316 151.24 429.943 150.237 429.351 150.224C428.759 150.21 428.173 151.192 428.042 152.416C427.911 153.641 428.284 154.643 428.876 154.657C429.246 154.665 429.612 154.286 429.868 153.702L429.363 152.87Z" fill="#28364F"/>
<path d="M435.729 153.014L436.407 153.343C436.471 153.112 436.523 152.868 436.551 152.608C436.683 151.383 436.309 150.381 435.718 150.367C435.126 150.354 434.54 151.336 434.408 152.56C434.277 153.784 434.651 154.787 435.242 154.8C435.611 154.808 435.979 154.429 436.235 153.845L435.729 153.014Z" fill="#28364F"/>
<path d="M431.744 152.784L430.479 157.674L433.864 157.39" stroke="#422424" stroke-width="0.3868" stroke-miterlimit="10"/>
<path d="M429.624 159.931C429.624 159.931 433.42 160.957 436.429 158.188" stroke="#422424" stroke-width="0.3868" stroke-miterlimit="10"/>
<path d="M426.439 145.314L448.341 148.081C448.341 148.081 450.985 137.794 439.124 136.198C429.551 134.911 426.839 142.785 426.439 145.314Z" fill="#4A75C9"/>
<path d="M439.571 136.271C439.421 136.247 439.279 136.219 439.124 136.198C429.551 134.911 426.839 142.785 426.439 145.314L436.993 146.647L439.571 136.271Z" fill="#6E9296"/>
<path d="M436.993 146.647L416.423 144.04C416.575 143.001 417.53 142.274 418.572 142.403L437.39 144.77L436.993 146.647Z" fill="#1B2536"/>
<path d="M102.396 228.934C102.396 228.934 99.7044 224.951 94.028 226.455C88.3517 227.96 88.079 232.747 88.079 235.004C88.079 237.262 88.3528 240.476 84.4539 240.681C80.5551 240.885 79.5979 244.1 79.5979 245.947C79.5979 247.794 79.3241 250.736 76.8621 252.035H96.9019L102.396 228.934Z" fill="#6E4C2E"/>
<path d="M97.85 248.046L102.1 230.182C101.029 230.745 99.9985 231.503 99.0402 232.487C93.081 238.607 95.4027 244.812 97.85 248.046Z" fill="#1B2536"/>
<path d="M104.919 233.201C104.919 235.719 102.987 237.759 100.603 237.759C98.2188 237.759 96.2863 235.719 96.2863 233.201C96.2863 230.684 98.2188 228.644 100.603 228.644C102.987 228.644 104.919 230.685 104.919 233.201Z" fill="#1B2536"/>
<path d="M121.387 236.577C119.471 229.19 107.571 223.103 100.048 230.832C92.5255 238.561 98.2019 246.426 100.664 248.273L121.387 236.577Z" fill="#6E4C2E"/>
<path d="M112.652 351.404H104.668L121.835 397.419H48.5234L65.6904 351.404H57.706L37.862 404.595H132.496L112.652 351.404Z" fill="#496163"/>
<path d="M127.61 374.072L123.232 390.579L139.921 398.604L141.781 399.069C144.26 399.689 145.887 402.059 145.576 404.595H104.448C103.24 404.595 102.425 403.358 102.903 402.247L108.002 390.396L112.288 374.073H127.61V374.072Z" fill="#DE6767"/>
<path d="M110.039 382.644L108.003 390.395L102.904 402.246C102.427 403.356 103.24 404.594 104.45 404.594H145.577C145.889 402.058 144.261 399.688 141.782 399.068L139.922 398.603L123.233 390.578L125.338 382.644H110.039Z" fill="#1B2536"/>
<path d="M160.646 327.499L184.787 376.717H156.518C156.518 376.717 151.958 370.516 151.958 364.315C151.958 358.113 143.133 353.984 141.791 348.994C140.449 344.005 131.349 331.668 131.349 331.668L125.866 319.083H147.145C152.882 319.084 158.12 322.348 160.646 327.499Z" fill="#1B2536"/>
<path d="M65.6904 351.404H57.7059L51.6313 367.686C53.5921 369.282 55.8459 370.504 58.2784 371.271L65.6904 351.404Z" fill="#1B2536"/>
<path d="M112.652 351.404H104.668L112.427 372.203H120.412L112.652 351.404Z" fill="#1B2536"/>
<path d="M87.8222 278.79L119.731 364.316H64.6676C56.6617 364.316 49.4975 359.342 46.6995 351.842L23.7101 290.22C21.6453 284.685 25.7376 278.791 31.6459 278.791H87.8222V278.79Z" fill="#496163"/>
<path d="M116.421 355.444L87.8222 278.788H31.6448C30.6729 278.788 29.7564 278.961 28.9011 279.253C28.9746 279.949 29.1364 280.652 29.3955 281.349L52.3849 342.971C55.1829 350.472 62.347 355.444 70.353 355.444H116.421Z" fill="#1B2536"/>
<path d="M51.4911 348.675H70.0543" stroke="#1B2536" stroke-width="0.4299" stroke-miterlimit="10"/>
<path d="M105.541 319.084H130.286C139.279 319.084 145.663 327.851 142.9 336.411L129.89 376.717H102.35C102.35 376.717 103.809 371.064 106.909 368.328C110.009 365.592 106.014 361.762 107.739 357.567C109.268 353.845 111.021 352.851 111.651 349.36H64.5511C54.9758 349.36 42.9386 334.997 60.3105 308.734H102.715L101.895 315.71L105.541 319.084Z" fill="#4A6CAB"/>
<path d="M60.4847 309.691C60.4847 309.691 89.6811 310.978 96.6473 319.084H105.543L101.895 315.71L102.715 308.734L60.4847 309.691Z" fill="#1B2536"/>
<path d="M88.7545 319.084H104.539" stroke="#1B2536" stroke-width="0.4299" stroke-miterlimit="10"/>
<path d="M75.5395 308.734L71.1224 322.89C70.3281 325.436 72.2301 328.021 74.8957 328.021H118.32C122.598 328.021 125.681 332.124 124.489 336.233L113.657 373.617" stroke="#1B2536" stroke-width="0.4299" stroke-miterlimit="10"/>
<path d="M131.347 327.336L118.582 335.681" stroke="#1B2536" stroke-width="0.4299" stroke-miterlimit="10"/>
<path d="M132.672 329.936L116.849 346.898" stroke="#1B2536" stroke-width="0.4299" stroke-miterlimit="10"/>
<path d="M83.9979 320.36L65.6904 332.945" stroke="#1B2536" stroke-width="0.4299" stroke-miterlimit="10"/>
<path d="M77.1359 321.454L63.7308 325.558" stroke="#1B2536" stroke-width="0.4299" stroke-miterlimit="10"/>
<path d="M83.9979 287.6C80.6693 281.004 78.093 275.63 78.093 275.63" stroke="black" stroke-width="0.4392" stroke-miterlimit="10"/>
<path d="M125.866 281.614C125.866 281.614 121.404 273.364 119.965 270.588C118.476 267.715 117.008 263.592 105.382 259.762C93.7554 255.932 78.161 254.838 72.7584 269.133C67.3547 283.427 62.7725 302.577 62.7725 302.577L59.0829 306.377C57.8802 307.614 58.7582 309.691 60.4836 309.691H103.535L125.866 281.614Z" fill="#D9956A"/>
<path d="M125.866 281.615L133.249 295.408L159.243 306.696C159.243 306.696 173.453 305.924 175.843 313.689H119.965L107.739 288.203L125.866 281.615Z" fill="#D65353"/>
<path d="M92.0458 302.852C89.7252 298.737 80.1738 279.91 80.1738 279.91L85.6363 302.872C86.5878 306.869 90.1597 309.691 94.269 309.691H97.3363C95.5249 308.09 93.7576 305.887 92.0458 302.852Z" fill="#1B2536"/>
<path d="M81.0449 297.652L65.6904 304.857" stroke="#1B2536" stroke-width="0.4299" stroke-miterlimit="10"/>
<path d="M109.418 269.612L108.391 277.341C108.391 277.341 110.033 283.066 108.391 287.966" stroke="#1B2536" stroke-width="0.4299" stroke-miterlimit="10"/>
<path d="M105.793 243.007L108.904 236.031L121.386 236.578C121.386 236.578 121.933 238.22 121.386 240.682C120.838 243.144 119.987 244.238 119.729 247.247C119.47 250.257 119.95 259.08 109.417 257.917L104.918 265.919C104.918 265.919 97.377 267.722 94.0269 257.382L105.793 243.007Z" fill="#DE6767"/>
<path d="M106.856 246.302C106.396 248.47 104.025 249.802 101.562 249.28C99.0991 248.757 97.4755 246.576 97.936 244.408C98.3964 242.24 100.767 240.907 103.23 241.43C105.693 241.953 107.317 244.135 106.856 246.302Z" fill="#DE6767"/>
<path d="M100.663 243.349C100.663 243.349 103.293 242.619 104.919 246.495" stroke="#422424" stroke-width="0.3868" stroke-miterlimit="10"/>
<path d="M101.347 245.947L103.104 243.97" stroke="#422424" stroke-width="0.3868" stroke-miterlimit="10"/>
<path d="M108.391 251.275C109.798 251.275 110.938 250.135 110.938 248.728C110.938 247.322 109.798 246.182 108.391 246.182C106.985 246.182 105.845 247.322 105.845 248.728C105.845 250.135 106.985 251.275 108.391 251.275Z" fill="#D65353"/>
<path d="M108.665 257.711C108.665 257.711 104.151 256.992 102.475 254.427" stroke="#422424" stroke-width="0.3868" stroke-miterlimit="10"/>
<path d="M84.5671 246.175L82.3789 252.035" stroke="white" stroke-width="0.4392" stroke-miterlimit="10"/>
<path d="M88.3426 246.175L86.1544 252.035" stroke="white" stroke-width="0.4392" stroke-miterlimit="10"/>
<path d="M92.1182 246.175L89.93 252.035" stroke="white" stroke-width="0.4392" stroke-miterlimit="10"/>
<path d="M95.8937 246.175L93.7056 252.035" stroke="white" stroke-width="0.4392" stroke-miterlimit="10"/>
<path d="M117.372 244.674L116.677 244.95C116.66 244.725 116.656 244.487 116.679 244.237C116.784 243.056 117.319 242.116 117.876 242.137C118.432 242.159 118.797 243.134 118.692 244.315C118.587 245.496 118.052 246.436 117.496 246.415C117.149 246.401 116.877 246.017 116.746 245.442L117.372 244.674Z" fill="#1B2536"/>
<path d="M111.394 244.44L110.699 244.717C110.683 244.491 110.679 244.254 110.702 244.003C110.807 242.821 111.342 241.881 111.899 241.903C112.454 241.924 112.82 242.899 112.715 244.081C112.609 245.262 112.074 246.202 111.519 246.181C111.171 246.167 110.9 245.782 110.769 245.206L111.394 244.44Z" fill="#1B2536"/>
<path d="M115.471 242.938C115.471 242.938 114.955 245.325 115.801 246.838C116.006 247.205 115.722 247.648 115.303 247.613L113.76 247.485" stroke="black" stroke-width="0.4392" stroke-miterlimit="10"/>
<path d="M116.188 249.926C116.188 249.926 113.315 250.883 109.862 249.105" stroke="#422424" stroke-width="0.3868" stroke-miterlimit="10"/>
<path d="M109.862 239.621C110.283 238.977 114.215 239.969 114.261 240.598C114.308 241.228 109.281 240.51 109.862 239.621Z" fill="#6E4C2E"/>
<path d="M120.93 240.68C120.576 239.997 116.565 240.594 116.455 241.216C116.346 241.838 121.42 241.622 120.93 240.68Z" fill="#6E4C2E"/>
<path d="M111.834 347.9C112.199 343.158 108.916 337.139 114.57 332.945" stroke="#1B2536" stroke-width="0.4299" stroke-miterlimit="10"/>
<path d="M102.904 402.247C102.427 403.357 103.24 404.595 104.45 404.595H145.577C145.717 403.455 145.449 402.359 144.905 401.43H103.256L102.904 402.247Z" fill="#6B89BF"/>
<path d="M104.095 372.203C102.918 374.52 102.351 376.717 102.351 376.717H129.891L131.348 372.203H104.095Z" fill="#6B89BF"/>
<path d="M104.919 279.91L113.657 297.654L150.59 309.417C150.59 309.417 163.038 306.408 169.741 313.932C169.741 313.932 118.445 313.932 111.606 313.932C104.766 313.932 98.0638 313.521 92.0446 302.852C89.4548 298.261 86.5108 292.582 83.9968 287.6L104.919 279.91Z" fill="#DE6767"/>
<path d="M95.7388 261.268L104.919 279.909" stroke="#1B2536" stroke-width="0.4299" stroke-miterlimit="10"/>
<path d="M100.953 250.591C101.656 250.591 102.226 250.021 102.226 249.318C102.226 248.615 101.656 248.045 100.953 248.045C100.25 248.045 99.6806 248.615 99.6806 249.318C99.6806 250.021 100.25 250.591 100.953 250.591Z" stroke="#943232" stroke-miterlimit="10"/>
<path d="M228.378 403.993H126.272L157.065 321.454H228.378V403.993Z" fill="#496163"/>
<path d="M155.186 326.493L228.378 353.19V321.454H157.065L155.186 326.493Z" fill="#1B2536"/>
<path d="M228.378 322.914H118.15C115.67 322.914 113.658 320.903 113.658 318.422C113.658 315.941 115.669 313.93 118.15 313.93H228.378V322.914Z" fill="#496163"/>
<path d="M0 404.595H594.024" stroke="#28364F" stroke-width="1.2517" stroke-miterlimit="10"/>
<path d="M144.052 51.5264H74.632C71.894 51.5264 69.6741 53.7462 69.6741 56.4843V104.202C69.6741 106.94 71.894 109.16 74.632 109.16H107.172C108.448 109.16 109.628 109.838 110.273 110.94L120.684 128.755C121.252 129.726 122.738 129.323 122.738 128.198V112.751C122.738 110.768 124.346 109.16 126.329 109.16H144.05C146.788 109.16 149.008 106.94 149.008 104.202V56.4843C149.009 53.7462 146.79 51.5264 144.052 51.5264Z" stroke="#BEDCE0" stroke-width="1.2362" stroke-miterlimit="10"/>
<path d="M123.531 74.5155C126.379 82.7658 121.999 91.7629 113.749 94.6107C105.498 97.4585 96.5013 93.0787 93.6535 84.8284C90.8057 76.5781 95.1854 67.581 103.436 64.7332C111.686 61.8854 120.683 66.2651 123.531 74.5155Z" fill="#EBBC3B"/>
<path d="M120.036 68.7907C120.745 69.5363 121.386 70.3554 121.946 71.2447C130.817 69.1516 136.332 68.9377 137.502 69.6935C136.832 71.6328 127.459 77.7345 110.001 83.7605C92.5447 89.7864 81.4025 90.764 79.6793 89.6507C80.1341 88.3348 84.6066 85.1012 92.8807 81.277C92.7732 80.2316 92.771 79.1907 92.8705 78.1667C84.5297 81.888 75.6141 86.847 76.9118 90.6067C79.2335 97.333 109.645 86.9217 110.938 86.4759C112.231 86.029 142.59 75.4649 140.268 68.7386C138.973 64.9789 128.897 66.5742 120.036 68.7907Z" fill="#4A75C9"/>
<path d="M231.632 295.246C231.632 295.246 244.216 263.784 282.79 241.078C282.79 241.078 292.638 215.418 306.737 206.488C311.456 203.499 317.235 208.432 315.188 213.63L301.119 249.358H342.435L231.632 295.246Z" fill="#4A75C9"/>
<path d="M341.609 104.29C338.455 81.4682 318.629 52.1282 280.328 52.1282C242.027 52.1282 222.201 81.4682 219.047 104.29C215.947 126.723 221.783 139.673 232.908 157.912C245.079 177.863 249.687 205.332 249.687 205.332H280.328H310.968C310.968 205.332 315.576 177.863 327.747 157.912C338.874 139.672 344.709 126.723 341.609 104.29Z" fill="#EBBC3B"/>
<path d="M280.328 204.154C266.878 204.154 254.991 203.515 248.046 202.544L254.166 244.719C254.351 245.992 266.063 247.01 280.328 247.01C294.593 247.01 306.306 245.992 306.49 244.719L312.61 202.544C305.665 203.516 293.778 204.154 280.328 204.154Z" fill="#1B2536"/>
<path d="M280.328 254.253C289.542 254.253 297.012 248.926 297.012 242.353C297.012 235.781 289.542 230.453 280.328 230.453C271.114 230.453 263.644 235.781 263.644 242.353C263.644 248.926 271.114 254.253 280.328 254.253Z" fill="#1B2536"/>
<path d="M296.624 152.257L299.483 132.65H299.456C299.585 131.891 299.708 131.111 299.825 130.314C301.947 115.763 300.985 101.417 297.218 101.417C294.879 101.417 292.369 107.262 290.619 115.402C289.998 107.262 288.297 101.417 285.958 101.417C283.62 101.417 281.514 107.262 280.328 115.402C279.143 107.262 277.037 101.417 274.698 101.417C272.361 101.417 270.659 107.262 270.037 115.402C268.287 107.262 265.777 101.417 263.438 101.417C259.67 101.417 258.709 115.764 260.831 130.314C260.948 131.111 261.071 131.891 261.2 132.65L264.032 152.257" stroke="white" stroke-width="2" stroke-miterlimit="10" stroke-linecap="round" stroke-linejoin="round"/>
<path d="M251.883 38.8396L240.315 7.05566" stroke="#D4780E" stroke-width="3" stroke-miterlimit="10"/>
<path d="M226.869 53.2809L205.128 27.3713" stroke="#D4780E" stroke-width="3" stroke-miterlimit="10"/>
<path d="M208.303 75.4084L179.011 58.4958" stroke="#D4780E" stroke-width="3" stroke-miterlimit="10"/>
<path d="M198.424 102.55L165.114 96.6758" stroke="#D4780E" stroke-width="3" stroke-miterlimit="10"/>
<path d="M280.328 0V33.8239" stroke="#D4780E" stroke-width="3" stroke-miterlimit="10"/>
<path d="M320.341 7.05566L308.773 38.8396" stroke="#D4780E" stroke-width="3" stroke-miterlimit="10"/>
<path d="M355.528 27.3713L333.787 53.2809" stroke="#D4780E" stroke-width="3" stroke-miterlimit="10"/>
<path d="M381.645 58.4958L352.353 75.4084" stroke="#D4780E" stroke-width="3" stroke-miterlimit="10"/>
<path d="M395.541 96.6758L362.232 102.55" stroke="#D4780E" stroke-width="3" stroke-miterlimit="10"/>
<path d="M283.884 342.028V309.472L355.931 265.976C366.301 259.716 373.466 249.284 375.587 237.358L382.743 197.128C383.204 194.541 381.384 192.078 378.771 191.817C374.542 191.394 368.273 192.566 363.494 201.135L364.151 179.903C364.237 177.116 361.815 174.911 359.049 175.257L357.519 175.449C348.902 176.526 342.435 183.852 342.435 192.536V228.22L334.86 193.447C334.298 190.868 331.285 189.7 329.132 191.227L326.512 193.086C320.284 197.502 317.252 205.18 318.783 212.66L325.467 245.321L306.527 214.943C305.465 213.239 303.064 213.033 301.728 214.532C297.875 218.851 296.979 225.055 299.45 230.287L309.326 251.202L294.827 264.607C294.827 264.607 224.518 270.352 224.518 311.389C224.518 329.172 224.518 342.03 224.518 342.03H283.884V342.028Z" fill="#4A75C9"/>
<path d="M224.518 326.16L283.884 330.537V342.028H224.518V326.16Z" fill="#1B2536"/>
<path d="M326.721 247.01L327.767 248.424C330.905 252.661 330.381 258.575 326.548 262.196L299.478 287.768" stroke="#1B2536" stroke-width="0.7511" stroke-miterlimit="10" stroke-linecap="round" stroke-linejoin="round"/>
<path d="M343.25 233.417L344.183 237.838C346.189 247.336 343.252 257.204 336.38 264.062L315.812 284.585" stroke="#1B2536" stroke-width="0.7511" stroke-miterlimit="10" stroke-linecap="round" stroke-linejoin="round"/>
<path d="M363.495 204.418L362.601 237.998C362.358 247.088 358.226 255.638 351.255 261.476L332.49 277.189" stroke="#1B2536" stroke-width="0.7511" stroke-miterlimit="10" stroke-linecap="round" stroke-linejoin="round"/>
<path d="M301.94 333.547H214.396V367.197H301.94V333.547Z" fill="#BEDCE0"/>
<path d="M305.808 360.116H210.528V404.594H305.808V360.116Z" fill="#1B2536"/>
<path d="M266.139 391.782V360.116" stroke="#BEDCE0" stroke-miterlimit="10"/>
<path d="M281.487 369.568C281.487 372.136 279.405 374.219 276.835 374.219C274.267 374.219 272.184 372.137 272.184 369.568C272.184 366.999 274.266 364.917 276.835 364.917C279.404 364.917 281.487 366.998 281.487 369.568Z" stroke="#BEDCE0" stroke-miterlimit="10"/>
<path d="M281.487 386.196C281.487 388.765 279.405 390.847 276.835 390.847C274.267 390.847 272.184 388.766 272.184 386.196C272.184 383.628 274.266 381.545 276.835 381.545C279.404 381.545 281.487 383.627 281.487 386.196Z" stroke="#BEDCE0" stroke-miterlimit="10"/>
<path d="M139.218 246.711L119.965 298.316H191.277L210.529 246.711H139.218Z" fill="#BEDCE0"/>
<path d="M142.875 246.711L123.623 298.316" stroke="#4A75C9" stroke-width="0.7511" stroke-miterlimit="10"/>
<path d="M177.943 269.522C176.627 274.558 171.477 278.641 166.44 278.641C161.403 278.641 158.388 274.559 159.705 269.522C161.021 264.486 166.171 260.403 171.207 260.403C176.244 260.403 179.259 264.486 177.943 269.522Z" stroke="white" stroke-width="0.7511" stroke-miterlimit="10"/>
<path d="M153.687 283.513L155.186 298.602H191.277L174.537 283.513H153.687Z" fill="#4A75C9"/>
<path d="M174.537 283.513L185.795 313.689H164.944L153.687 283.513H174.537Z" fill="#BEDCE0"/>
<path d="M155.926 283.513L167.552 313.931" stroke="#4A75C9" stroke-width="0.7511" stroke-miterlimit="10"/>
<path d="M474 88.9787C474 74.6967 460.043 63.1189 442.826 63.1189C425.609 63.1189 411.652 74.6967 411.652 88.9787C411.652 100.137 420.172 109.644 432.109 113.269C435.101 114.178 437.517 116.403 438.832 119.239L442.826 127.842L446.82 119.239C448.137 116.402 450.552 114.178 453.543 113.269C465.481 109.644 474 100.137 474 88.9787Z" fill="#4A75C9"/>
<path d="M431.378 88.6495C431.378 90.2098 430.113 91.4758 428.551 91.4758C426.991 91.4758 425.725 90.2109 425.725 88.6495C425.725 87.0882 426.99 85.8232 428.551 85.8232C430.113 85.8232 431.378 87.0882 431.378 88.6495Z" fill="white"/>
<path d="M440.894 88.6495C440.894 90.2098 439.629 91.4758 438.068 91.4758C436.507 91.4758 435.241 90.2109 435.241 88.6495C435.241 87.0882 436.506 85.8232 438.068 85.8232C439.629 85.8232 440.894 87.0882 440.894 88.6495Z" fill="white"/>
<path d="M450.41 88.6495C450.41 90.2098 449.145 91.4758 447.584 91.4758C446.024 91.4758 444.758 90.2109 444.758 88.6495C444.758 87.0882 446.023 85.8232 447.584 85.8232C449.145 85.8232 450.41 87.0882 450.41 88.6495Z" fill="white"/>
<path d="M459.927 88.6495C459.927 90.2098 458.662 91.4758 457.1 91.4758C455.54 91.4758 454.274 90.2109 454.274 88.6495C454.274 87.0882 455.539 85.8232 457.1 85.8232C458.662 85.8232 459.927 87.0882 459.927 88.6495Z" fill="white"/>
</svg>
