
<svg width="134" height="67" viewBox="0 0 134 67" fill="none" xmlns="http://www.w3.org/2000/svg">
<g clip-path="url(#clip0_151_1733)">
<path fill-rule="evenodd" clip-rule="evenodd" d="M28.3519 12.9258H18.665V34.0716C18.665 37.5058 17.4219 39.2224 14.9351 39.2224C13.899 39.2224 13.0093 38.8645 12.2674 38.1482C11.5245 37.4324 11.1536 36.5736 11.1536 35.5728C11.1536 34.5375 11.5118 33.6537 12.2286 32.9198C12.9449 32.1865 13.8038 31.8201 14.8058 31.8201C15.5998 31.8201 16.3938 32.1307 17.1888 32.7518V22.0882C16.0314 21.9845 15.1682 21.9329 14.5983 21.9329C11.0062 21.9329 7.89894 23.2618 5.27381 25.9191C2.64868 28.5763 1.33691 31.7255 1.33691 35.366C1.33691 39.1277 2.65826 42.3024 5.29989 44.8905C7.94205 47.4786 11.1877 48.7729 15.0389 48.7729C16.9722 48.7729 18.8593 48.3497 20.6979 47.5047C22.537 46.6597 24.0526 45.5206 25.2435 44.0881C27.3163 41.6036 28.3519 38.3853 28.3519 34.4338V12.9258ZM47.6224 32.5448V22.1918C46.4139 22.0019 45.4294 21.9067 44.67 21.9067C41.2679 21.9067 38.5481 23.016 36.511 25.233C34.4733 27.4504 33.4548 30.4225 33.4548 34.1492V48.2554H43.1416V36.013C43.1416 33.3212 44.0224 31.9753 45.7838 31.9753C46.3362 31.9753 46.9492 32.1651 47.6224 32.5448Z" fill="#2370FF"/>
<path d="M62.4647 31.4573C61.4286 31.4573 60.5479 31.8328 59.8226 32.5831C59.0978 33.3339 58.7348 34.2528 58.7348 35.3398C58.7348 36.4097 59.1015 37.3244 59.8359 38.0832C60.5692 38.8431 61.4456 39.2222 62.4647 39.2222C63.5003 39.2222 64.3853 38.8431 65.1196 38.0832C65.853 37.3244 66.2207 36.4097 66.2207 35.3398C66.2207 34.2528 65.8577 33.3339 65.1324 32.5831C64.4071 31.8328 63.5179 31.4573 62.4647 31.4573ZM62.7233 21.9067C66.3841 21.9067 69.5227 23.2229 72.1388 25.8541C74.7549 28.4853 76.0629 31.6387 76.0629 35.3137C76.0629 39.0409 74.7373 42.2161 72.0866 44.8388C69.4365 47.4615 66.2377 48.7728 62.4908 48.7728C58.7433 48.7728 55.5398 47.4572 52.8811 44.8255C50.2219 42.1943 48.8926 39.0239 48.8926 35.3137C48.8926 31.535 50.2219 28.356 52.8811 25.7759C55.5398 23.1968 58.821 21.9067 62.7233 21.9067Z" fill="#5843BD"/>
<path fill-rule="evenodd" clip-rule="evenodd" d="M89.7859 49.6842V7.14258H80.0996V61.2497L89.7859 49.6842ZM84.1597 62.7881L105.252 37.6342L103.493 34.937L80.1531 62.6636L84.1597 62.7881Z" fill="#2370FF"/>
<path fill-rule="evenodd" clip-rule="evenodd" d="M131.7 6.09397L110.177 31.7625L108.474 29.0218L129.671 3.84033H131.689L131.7 6.09397Z" fill="#2370FF"/>
<path fill-rule="evenodd" clip-rule="evenodd" d="M125.127 3.74619L110.226 21.0112L110.176 24.6979L128.155 3.67334L125.127 3.74619ZM110.528 62.7881L118.638 62.7477L104.448 39.9067L99.625 45.4036L110.528 62.7881Z" fill="#2370FF"/>
<path fill-rule="evenodd" clip-rule="evenodd" d="M126.322 62.7883H122.052L90.3887 12.301V7.08643L93.7668 7.12259C105.691 26.136 114.667 40.4465 126.203 58.842L126.322 62.7883Z" fill="#2370FF"/>
</g>
<defs>
<clipPath id="clip0_151_1733">
<rect width="133.039" height="66.4713" fill="white" transform="translate(-0.00390625 -0.00488281)"/>
</clipPath>
</defs>
</svg>
