
<svg width="40" height="36" viewBox="0 0 40 36" fill="none" xmlns="http://www.w3.org/2000/svg">
<path d="M2.85714 0H17.1429C17.9006 0 18.6273 0.379285 19.1632 1.05442C19.699 1.72955 20 2.64522 20 3.6C20 4.55478 19.699 5.47045 19.1632 6.14559C18.6273 6.82072 17.9006 7.2 17.1429 7.2H2.85714C2.09938 7.2 1.37266 6.82072 0.836838 6.14559C0.30102 5.47045 0 4.55478 0 3.6C0 2.64522 0.30102 1.72955 0.836838 1.05442C1.37266 0.379285 2.09938 0 2.85714 0ZM22.8571 28.8H37.1429C37.9006 28.8 38.6273 29.1793 39.1632 29.8544C39.699 30.5295 40 31.4452 40 32.4C40 33.3548 39.699 34.2705 39.1632 34.9456C38.6273 35.6207 37.9006 36 37.1429 36H22.8571C22.0994 36 21.3727 35.6207 20.8368 34.9456C20.301 34.2705 20 33.3548 20 32.4C20 31.4452 20.301 30.5295 20.8368 29.8544C21.3727 29.1793 22.0994 28.8 22.8571 28.8ZM2.85714 14.4H37.1429C37.9006 14.4 38.6273 14.7793 39.1632 15.4544C39.699 16.1295 40 17.0452 40 18C40 18.9548 39.699 19.8705 39.1632 20.5456C38.6273 21.2207 37.9006 21.6 37.1429 21.6H2.85714C2.09938 21.6 1.37266 21.2207 0.836838 20.5456C0.30102 19.8705 0 18.9548 0 18C0 17.0452 0.30102 16.1295 0.836838 15.4544C1.37266 14.7793 2.09938 14.4 2.85714 14.4Z" fill="#2370FF"/>
</svg>
